<svg width="30" height="30" viewBox="0 0 30 30" fill="none" xmlns="http://www.w3.org/2000/svg">
<path d="M22.5 7.4625V5H7.5V7.4625L15 12.82L22.5 7.46375V7.4625ZM16.25 15V25L13.75 27.5V15L6.0475 9.4975C5.72366 9.26633 5.45967 8.96119 5.27748 8.60747C5.09529 8.25374 5.00016 7.86164 5 7.46375V5C5 4.33696 5.26339 3.70107 5.73223 3.23223C6.20107 2.76339 6.83696 2.5 7.5 2.5H22.5C23.163 2.5 23.7989 2.76339 24.2678 3.23223C24.7366 3.70107 25 4.33696 25 5V7.4625C25 7.8606 24.905 8.25295 24.7228 8.60691C24.5406 8.96087 24.2765 9.2662 23.9525 9.4975L16.25 15Z" fill="white"/>
</svg>
